<svg width="313" height="22" fill="none" xmlns="http://www.w3.org/2000/svg"><path d="M309.509 4.053l.008.007-.008-.007zm-13.338 14.059l-.008-.008.008.008zm-.361-.36l.012.013-.012-.013zM2.888 16.586l.003.002a9.654 9.654 0 01-.003-.002zm280.757-6.144h-10.634V9.46h10.634v.982zm-45.396.018a4.251 4.251 0 118.502-.001 4.251 4.251 0 01-8.502 0zm16 0a4.251 4.251 0 118.502-.001 4.251 4.251 0 01-8.502 0zm-224.137.098h10.634v.982H30.111v-.982zm44.397-.018a4.252 4.252 0 11-8.504 0 4.252 4.252 0 018.504 0zm-16 0a4.252 4.252 0 11-8.504 0 4.252 4.252 0 018.503 0zm108.243.46c0 5.938-4.814 10.752-10.752 10.752-5.938 0-10.752-4.814-10.752-10.752 0-5.938 4.814-10.752 10.752-10.752 5.938 0 10.752 4.814 10.752 10.752zm-4 0a6.752 6.752 0 11-13.503 0 6.752 6.752 0 0113.503 0zM156 18.248a7.248 7.248 0 100-14.496 7.248 7.248 0 000 14.497z" stroke="#fff" stroke-width=".497"/></svg>