<svg width="129" height="17" fill="none" xmlns="http://www.w3.org/2000/svg"><path d="M128.022 12.151c-3.527.013-3.533-1.65-7.061-1.637-3.528.012-3.521 1.675-7.049 1.687-3.527.013-3.57-11.987-7.098-11.975-3.528.013-3.485 12.013-7.013 12.025-3.528.013-3.552-6.778-7.08-6.766-3.528.013-3.503 6.804-7.031 6.816-3.528.013-3.57-11.987-7.098-11.975-3.528.013-3.485 12.013-7.013 12.025-3.528.013-3.543-4.281-7.07-4.268-3.528.012-3.513 4.306-7.04 4.318-3.528.013-3.536-1.959-7.063-1.947-3.527.013-3.521 1.984-7.049 1.997-3.527.012-3.558-8.575-7.085-8.562-3.528.012-3.498 8.6-7.026 8.612-3.528.012-3.57-11.987-7.098-11.975-3.528.012-3.485 12.012-7.013 12.025-3.527.012-3.565-10.37-7.093-10.358-3.528.012-3.49 10.395-7.019 10.408" fill="#fff"/></svg>