<svg width="1320" height="518" fill="none" xmlns="http://www.w3.org/2000/svg"><mask id="a" maskUnits="userSpaceOnUse" x="0" y="0" width="1320" height="518" fill="#000"><path fill="#fff" d="M0 0h1320v518H0z"/><path fill-rule="evenodd" clip-rule="evenodd" d="M948 30.5C948 14.208 934.792 1 918.5 1H31C14.431 1 1 14.431 1 31v485a1 1 0 001 1h916c16.569 0 30-13.431 30-30 0-16.569 13.431-30 30-30h311c16.57 0 30-13.431 30-30V90c0-16.569-13.43-30-30-30H977.5C961.208 60 948 46.792 948 30.5z"/></mask><path d="M31 1.5h887.5v-1H31v1zM1.5 60V31h-1v29h1zm0 2v-2h-1v2h1zm0 394V62h-1v394h1zm0 1v-1h-1v1h1zm0 59v-59h-1v59h1zm916.5.5H2v1h916v-1zm371-60H978v1h311v-1zM1318.5 90v337h1V90h-1zm-341-29.5H1289v-1H977.5v1zm311.5 397c16.84 0 30.5-13.655 30.5-30.5h-1c0 16.292-13.21 29.5-29.5 29.5v1zM948.5 487c0-16.292 13.208-29.5 29.5-29.5v-1c-16.845 0-30.5 13.655-30.5 30.5h1zM918 517.5c16.845 0 30.5-13.655 30.5-30.5h-1c0 16.292-13.208 29.5-29.5 29.5v1zM.5 516a1.5 1.5 0 001.5 1.5v-1a.5.5 0 01-.5-.5h-1zm977-456.5c-16.016 0-29-12.984-29-29h-1c0 16.569 13.431 30 30 30v-1zm-59-58c16.016 0 29 12.984 29 29h1c0-16.569-13.431-30-30-30v1zm401 88.5c0-16.845-13.66-30.5-30.5-30.5v1c16.29 0 29.5 13.208 29.5 29.5h1zM31 .5C14.155.5.5 14.155.5 31h1C1.5 14.708 14.708 1.5 31 1.5v-1z" fill="#fff" mask="url(#a)"/></svg>