<svg width="80" height="80" fill="none" xmlns="http://www.w3.org/2000/svg"><circle cx="40.06" cy="39.94" r="39.69" stroke="#fff" stroke-width=".5"/><path d="M54.837 17.587c-1.65.352-2.79.972-3.978 2.169-.72.72-.905.963-1.24 1.641-.485.989-.602 1.449-.77 3.14-.343 3.434-.946 6.139-1.708 7.654-.302.587-.327.947-.092 1.181.234.235.594.21 1.155-.075 1.524-.762 4.304-1.382 7.763-1.725.737-.076 1.6-.21 1.926-.302 2.462-.728 4.388-2.939 4.94-5.677.193-.93.135-2.462-.125-3.358-.343-1.206-1.164-2.47-2.093-3.241-.637-.527-1.843-1.139-2.596-1.323-.77-.193-2.496-.235-3.182-.084zm-31.654 1.692c-.645.05-1.248.226-1.951.586-.562.293-.846.503-1.232.93-1.423 1.549-1.724 3.718-.778 5.627.335.695-.11.21 6.515 6.992 6.975 7.135 6.43 6.549 6.816 7.336 1.407 2.88.05 6.783-2.897 8.307-1.382.712-1.65.762-4.338.77-2.655 0-2.797.025-4.061.678a6.255 6.255 0 00-3.183 4.07c-.31 1.306-.167 2.897.369 4.112.72 1.641 2.311 2.99 4.12 3.508.846.243 2.378.252 3.216.026 2.076-.561 3.751-2.102 4.387-4.053.36-1.072.42-1.734.302-3.074-.168-1.809.025-2.956.712-4.354 1.582-3.216 6.104-4.59 8.91-2.697.226.151 2.612 2.429 5.3 5.05 7.98 7.804 7.738 7.587 8.408 7.93 1.934 1.013 4.27.687 5.778-.812 1.616-1.608 1.91-4.003.728-5.904-.175-.276-1.122-1.29-2.411-2.554-7.62-7.503-9.329-9.17-9.421-9.17a.418.418 0 00-.419.41c0 .127.436 1.458.972 2.949.837 2.328.98 2.805 1.013 3.366.042.595.033.67-.176.98-.904 1.365-2.964.611-5.552-2.018-1.465-1.5-2.11-2.354-3.416-4.548-1.508-2.537-1.792-2.822-4.413-4.388-1.935-1.155-3.4-2.252-4.54-3.408-1.967-2.001-2.88-3.634-2.578-4.639.226-.753.946-1.172 1.808-1.055.235.034 1.223.343 2.186.687 3.944 1.406 4.061 1.44 4.246 1.164.2-.293.343-.134-9.145-9.764-1.733-1.759-2.236-2.22-2.68-2.454a4.713 4.713 0 00-2.595-.586z" fill="#fff"/><path d="M42.133 34.578c-.862.277-1.499.854-1.884 1.692-.15.326-.193.561-.193 1.122 0 .636.026.779.277 1.273.318.645.77 1.089 1.432 1.398.41.193.578.218 1.306.218.796 0 .863-.017 1.365-.285a3.003 3.003 0 001.348-1.423c.184-.394.218-.586.218-1.181 0-.595-.034-.787-.218-1.18a2.893 2.893 0 00-1.39-1.433c-.452-.217-.661-.268-1.222-.293-.428-.017-.821.017-1.039.092z" fill="#fff"/></svg>